<?xml version="1.0" encoding="utf-8" standalone="no"?>
<!DOCTYPE svg PUBLIC "-//W3C//DTD SVG 1.1//EN"
  "http://www.w3.org/Graphics/SVG/1.1/DTD/svg11.dtd">
<svg xmlns:xlink="http://www.w3.org/1999/xlink" width="460.8pt" height="345.6pt" viewBox="0 0 460.8 345.6" xmlns="http://www.w3.org/2000/svg" version="1.1">
 <metadata>
  <rdf:RDF xmlns:dc="http://purl.org/dc/elements/1.1/" xmlns:cc="http://creativecommons.org/ns#" xmlns:rdf="http://www.w3.org/1999/02/22-rdf-syntax-ns#">
   <cc:Work>
    <dc:type rdf:resource="http://purl.org/dc/dcmitype/StillImage"/>
    <dc:date>2023-07-26T15:17:27.007656</dc:date>
    <dc:format>image/svg+xml</dc:format>
    <dc:creator>
     <cc:Agent>
      <dc:title>Matplotlib v3.7.1, https://matplotlib.org/</dc:title>
     </cc:Agent>
    </dc:creator>
   </cc:Work>
  </rdf:RDF>
 </metadata>
 <defs>
  <style type="text/css">*{stroke-linejoin: round; stroke-linecap: butt}</style>
 </defs>
 <g id="figure_1">
  <g id="patch_1">
   <path d="M 0 345.6 
L 460.8 345.6 
L 460.8 0 
L 0 0 
z
" style="fill: #ffffff"/>
  </g>
  <g id="axes_1">
   <g id="patch_2">
    <path d="M 57.6 307.584 
L 414.72 307.584 
L 414.72 41.472 
L 57.6 41.472 
z
" style="fill: #ffffff"/>
   </g>
   <g id="matplotlib.axis_1">
    <g id="xtick_1">
     <g id="line2d_1">
      <defs>
       <path id="m909606b6d4" d="M 0 0 
L 0 3.5 
" style="stroke: #000000; stroke-width: 0.8"/>
      </defs>
      <g>
       <use xlink:href="#m909606b6d4" x="73.832727" y="307.584" style="stroke: #000000; stroke-width: 0.8"/>
      </g>
     </g>
     <g id="text_1">
      <!-- 0 -->
      <g transform="translate(70.651477 322.182437) scale(0.1 -0.1)">
       <defs>
        <path id="DejaVuSans-30" d="M 2034 4250 
Q 1547 4250 1301 3770 
Q 1056 3291 1056 2328 
Q 1056 1369 1301 889 
Q 1547 409 2034 409 
Q 2525 409 2770 889 
Q 3016 1369 3016 2328 
Q 3016 3291 2770 3770 
Q 2525 4250 2034 4250 
z
M 2034 4750 
Q 2819 4750 3233 4129 
Q 3647 3509 3647 2328 
Q 3647 1150 3233 529 
Q 2819 -91 2034 -91 
Q 1250 -91 836 529 
Q 422 1150 422 2328 
Q 422 3509 836 4129 
Q 1250 4750 2034 4750 
z
" transform="scale(0.015625)"/>
       </defs>
       <use xlink:href="#DejaVuSans-30"/>
      </g>
     </g>
    </g>
    <g id="xtick_2">
     <g id="line2d_2">
      <g>
       <use xlink:href="#m909606b6d4" x="114.618474" y="307.584" style="stroke: #000000; stroke-width: 0.8"/>
      </g>
     </g>
     <g id="text_2">
      <!-- 25 -->
      <g transform="translate(108.255974 322.182437) scale(0.1 -0.1)">
       <defs>
        <path id="DejaVuSans-32" d="M 1228 531 
L 3431 531 
L 3431 0 
L 469 0 
L 469 531 
Q 828 903 1448 1529 
Q 2069 2156 2228 2338 
Q 2531 2678 2651 2914 
Q 2772 3150 2772 3378 
Q 2772 3750 2511 3984 
Q 2250 4219 1831 4219 
Q 1534 4219 1204 4116 
Q 875 4013 500 3803 
L 500 4441 
Q 881 4594 1212 4672 
Q 1544 4750 1819 4750 
Q 2544 4750 2975 4387 
Q 3406 4025 3406 3419 
Q 3406 3131 3298 2873 
Q 3191 2616 2906 2266 
Q 2828 2175 2409 1742 
Q 1991 1309 1228 531 
z
" transform="scale(0.015625)"/>
        <path id="DejaVuSans-35" d="M 691 4666 
L 3169 4666 
L 3169 4134 
L 1269 4134 
L 1269 2991 
Q 1406 3038 1543 3061 
Q 1681 3084 1819 3084 
Q 2600 3084 3056 2656 
Q 3513 2228 3513 1497 
Q 3513 744 3044 326 
Q 2575 -91 1722 -91 
Q 1428 -91 1123 -41 
Q 819 9 494 109 
L 494 744 
Q 775 591 1075 516 
Q 1375 441 1709 441 
Q 2250 441 2565 725 
Q 2881 1009 2881 1497 
Q 2881 1984 2565 2268 
Q 2250 2553 1709 2553 
Q 1456 2553 1204 2497 
Q 953 2441 691 2322 
L 691 4666 
z
" transform="scale(0.015625)"/>
       </defs>
       <use xlink:href="#DejaVuSans-32"/>
       <use xlink:href="#DejaVuSans-35" x="63.623047"/>
      </g>
     </g>
    </g>
    <g id="xtick_3">
     <g id="line2d_3">
      <g>
       <use xlink:href="#m909606b6d4" x="155.404221" y="307.584" style="stroke: #000000; stroke-width: 0.8"/>
      </g>
     </g>
     <g id="text_3">
      <!-- 50 -->
      <g transform="translate(149.041721 322.182437) scale(0.1 -0.1)">
       <use xlink:href="#DejaVuSans-35"/>
       <use xlink:href="#DejaVuSans-30" x="63.623047"/>
      </g>
     </g>
    </g>
    <g id="xtick_4">
     <g id="line2d_4">
      <g>
       <use xlink:href="#m909606b6d4" x="196.189968" y="307.584" style="stroke: #000000; stroke-width: 0.8"/>
      </g>
     </g>
     <g id="text_4">
      <!-- 75 -->
      <g transform="translate(189.827468 322.182437) scale(0.1 -0.1)">
       <defs>
        <path id="DejaVuSans-37" d="M 525 4666 
L 3525 4666 
L 3525 4397 
L 1831 0 
L 1172 0 
L 2766 4134 
L 525 4134 
L 525 4666 
z
" transform="scale(0.015625)"/>
       </defs>
       <use xlink:href="#DejaVuSans-37"/>
       <use xlink:href="#DejaVuSans-35" x="63.623047"/>
      </g>
     </g>
    </g>
    <g id="xtick_5">
     <g id="line2d_5">
      <g>
       <use xlink:href="#m909606b6d4" x="236.975715" y="307.584" style="stroke: #000000; stroke-width: 0.8"/>
      </g>
     </g>
     <g id="text_5">
      <!-- 100 -->
      <g transform="translate(227.431965 322.182437) scale(0.1 -0.1)">
       <defs>
        <path id="DejaVuSans-31" d="M 794 531 
L 1825 531 
L 1825 4091 
L 703 3866 
L 703 4441 
L 1819 4666 
L 2450 4666 
L 2450 531 
L 3481 531 
L 3481 0 
L 794 0 
L 794 531 
z
" transform="scale(0.015625)"/>
       </defs>
       <use xlink:href="#DejaVuSans-31"/>
       <use xlink:href="#DejaVuSans-30" x="63.623047"/>
       <use xlink:href="#DejaVuSans-30" x="127.246094"/>
      </g>
     </g>
    </g>
    <g id="xtick_6">
     <g id="line2d_6">
      <g>
       <use xlink:href="#m909606b6d4" x="277.761462" y="307.584" style="stroke: #000000; stroke-width: 0.8"/>
      </g>
     </g>
     <g id="text_6">
      <!-- 125 -->
      <g transform="translate(268.217712 322.182437) scale(0.1 -0.1)">
       <use xlink:href="#DejaVuSans-31"/>
       <use xlink:href="#DejaVuSans-32" x="63.623047"/>
       <use xlink:href="#DejaVuSans-35" x="127.246094"/>
      </g>
     </g>
    </g>
    <g id="xtick_7">
     <g id="line2d_7">
      <g>
       <use xlink:href="#m909606b6d4" x="318.547209" y="307.584" style="stroke: #000000; stroke-width: 0.8"/>
      </g>
     </g>
     <g id="text_7">
      <!-- 150 -->
      <g transform="translate(309.003459 322.182437) scale(0.1 -0.1)">
       <use xlink:href="#DejaVuSans-31"/>
       <use xlink:href="#DejaVuSans-35" x="63.623047"/>
       <use xlink:href="#DejaVuSans-30" x="127.246094"/>
      </g>
     </g>
    </g>
    <g id="xtick_8">
     <g id="line2d_8">
      <g>
       <use xlink:href="#m909606b6d4" x="359.332956" y="307.584" style="stroke: #000000; stroke-width: 0.8"/>
      </g>
     </g>
     <g id="text_8">
      <!-- 175 -->
      <g transform="translate(349.789206 322.182437) scale(0.1 -0.1)">
       <use xlink:href="#DejaVuSans-31"/>
       <use xlink:href="#DejaVuSans-37" x="63.623047"/>
       <use xlink:href="#DejaVuSans-35" x="127.246094"/>
      </g>
     </g>
    </g>
    <g id="xtick_9">
     <g id="line2d_9">
      <g>
       <use xlink:href="#m909606b6d4" x="400.118703" y="307.584" style="stroke: #000000; stroke-width: 0.8"/>
      </g>
     </g>
     <g id="text_9">
      <!-- 200 -->
      <g transform="translate(390.574953 322.182437) scale(0.1 -0.1)">
       <use xlink:href="#DejaVuSans-32"/>
       <use xlink:href="#DejaVuSans-30" x="63.623047"/>
       <use xlink:href="#DejaVuSans-30" x="127.246094"/>
      </g>
     </g>
    </g>
    <g id="text_10">
     <!-- Epoch -->
     <g transform="translate(220.849063 335.860562) scale(0.1 -0.1)">
      <defs>
       <path id="DejaVuSans-45" d="M 628 4666 
L 3578 4666 
L 3578 4134 
L 1259 4134 
L 1259 2753 
L 3481 2753 
L 3481 2222 
L 1259 2222 
L 1259 531 
L 3634 531 
L 3634 0 
L 628 0 
L 628 4666 
z
" transform="scale(0.015625)"/>
       <path id="DejaVuSans-70" d="M 1159 525 
L 1159 -1331 
L 581 -1331 
L 581 3500 
L 1159 3500 
L 1159 2969 
Q 1341 3281 1617 3432 
Q 1894 3584 2278 3584 
Q 2916 3584 3314 3078 
Q 3713 2572 3713 1747 
Q 3713 922 3314 415 
Q 2916 -91 2278 -91 
Q 1894 -91 1617 61 
Q 1341 213 1159 525 
z
M 3116 1747 
Q 3116 2381 2855 2742 
Q 2594 3103 2138 3103 
Q 1681 3103 1420 2742 
Q 1159 2381 1159 1747 
Q 1159 1113 1420 752 
Q 1681 391 2138 391 
Q 2594 391 2855 752 
Q 3116 1113 3116 1747 
z
" transform="scale(0.015625)"/>
       <path id="DejaVuSans-6f" d="M 1959 3097 
Q 1497 3097 1228 2736 
Q 959 2375 959 1747 
Q 959 1119 1226 758 
Q 1494 397 1959 397 
Q 2419 397 2687 759 
Q 2956 1122 2956 1747 
Q 2956 2369 2687 2733 
Q 2419 3097 1959 3097 
z
M 1959 3584 
Q 2709 3584 3137 3096 
Q 3566 2609 3566 1747 
Q 3566 888 3137 398 
Q 2709 -91 1959 -91 
Q 1206 -91 779 398 
Q 353 888 353 1747 
Q 353 2609 779 3096 
Q 1206 3584 1959 3584 
z
" transform="scale(0.015625)"/>
       <path id="DejaVuSans-63" d="M 3122 3366 
L 3122 2828 
Q 2878 2963 2633 3030 
Q 2388 3097 2138 3097 
Q 1578 3097 1268 2742 
Q 959 2388 959 1747 
Q 959 1106 1268 751 
Q 1578 397 2138 397 
Q 2388 397 2633 464 
Q 2878 531 3122 666 
L 3122 134 
Q 2881 22 2623 -34 
Q 2366 -91 2075 -91 
Q 1284 -91 818 406 
Q 353 903 353 1747 
Q 353 2603 823 3093 
Q 1294 3584 2113 3584 
Q 2378 3584 2631 3529 
Q 2884 3475 3122 3366 
z
" transform="scale(0.015625)"/>
       <path id="DejaVuSans-68" d="M 3513 2113 
L 3513 0 
L 2938 0 
L 2938 2094 
Q 2938 2591 2744 2837 
Q 2550 3084 2163 3084 
Q 1697 3084 1428 2787 
Q 1159 2491 1159 1978 
L 1159 0 
L 581 0 
L 581 4863 
L 1159 4863 
L 1159 2956 
Q 1366 3272 1645 3428 
Q 1925 3584 2291 3584 
Q 2894 3584 3203 3211 
Q 3513 2838 3513 2113 
z
" transform="scale(0.015625)"/>
      </defs>
      <use xlink:href="#DejaVuSans-45"/>
      <use xlink:href="#DejaVuSans-70" x="63.183594"/>
      <use xlink:href="#DejaVuSans-6f" x="126.660156"/>
      <use xlink:href="#DejaVuSans-63" x="187.841797"/>
      <use xlink:href="#DejaVuSans-68" x="242.822266"/>
     </g>
    </g>
   </g>
   <g id="matplotlib.axis_2">
    <g id="ytick_1">
     <g id="line2d_10">
      <defs>
       <path id="mc3e4fff557" d="M 0 0 
L -3.5 0 
" style="stroke: #000000; stroke-width: 0.8"/>
      </defs>
      <g>
       <use xlink:href="#mc3e4fff557" x="57.6" y="280.209874" style="stroke: #000000; stroke-width: 0.8"/>
      </g>
     </g>
     <g id="text_11">
      <!-- 0.2 -->
      <g transform="translate(34.696875 284.009092) scale(0.1 -0.1)">
       <defs>
        <path id="DejaVuSans-2e" d="M 684 794 
L 1344 794 
L 1344 0 
L 684 0 
L 684 794 
z
" transform="scale(0.015625)"/>
       </defs>
       <use xlink:href="#DejaVuSans-30"/>
       <use xlink:href="#DejaVuSans-2e" x="63.623047"/>
       <use xlink:href="#DejaVuSans-32" x="95.410156"/>
      </g>
     </g>
    </g>
    <g id="ytick_2">
     <g id="line2d_11">
      <g>
       <use xlink:href="#mc3e4fff557" x="57.6" y="248.247347" style="stroke: #000000; stroke-width: 0.8"/>
      </g>
     </g>
     <g id="text_12">
      <!-- 0.3 -->
      <g transform="translate(34.696875 252.046566) scale(0.1 -0.1)">
       <defs>
        <path id="DejaVuSans-33" d="M 2597 2516 
Q 3050 2419 3304 2112 
Q 3559 1806 3559 1356 
Q 3559 666 3084 287 
Q 2609 -91 1734 -91 
Q 1441 -91 1130 -33 
Q 819 25 488 141 
L 488 750 
Q 750 597 1062 519 
Q 1375 441 1716 441 
Q 2309 441 2620 675 
Q 2931 909 2931 1356 
Q 2931 1769 2642 2001 
Q 2353 2234 1838 2234 
L 1294 2234 
L 1294 2753 
L 1863 2753 
Q 2328 2753 2575 2939 
Q 2822 3125 2822 3475 
Q 2822 3834 2567 4026 
Q 2313 4219 1838 4219 
Q 1578 4219 1281 4162 
Q 984 4106 628 3988 
L 628 4550 
Q 988 4650 1302 4700 
Q 1616 4750 1894 4750 
Q 2613 4750 3031 4423 
Q 3450 4097 3450 3541 
Q 3450 3153 3228 2886 
Q 3006 2619 2597 2516 
z
" transform="scale(0.015625)"/>
       </defs>
       <use xlink:href="#DejaVuSans-30"/>
       <use xlink:href="#DejaVuSans-2e" x="63.623047"/>
       <use xlink:href="#DejaVuSans-33" x="95.410156"/>
      </g>
     </g>
    </g>
    <g id="ytick_3">
     <g id="line2d_12">
      <g>
       <use xlink:href="#mc3e4fff557" x="57.6" y="216.284821" style="stroke: #000000; stroke-width: 0.8"/>
      </g>
     </g>
     <g id="text_13">
      <!-- 0.4 -->
      <g transform="translate(34.696875 220.084039) scale(0.1 -0.1)">
       <defs>
        <path id="DejaVuSans-34" d="M 2419 4116 
L 825 1625 
L 2419 1625 
L 2419 4116 
z
M 2253 4666 
L 3047 4666 
L 3047 1625 
L 3713 1625 
L 3713 1100 
L 3047 1100 
L 3047 0 
L 2419 0 
L 2419 1100 
L 313 1100 
L 313 1709 
L 2253 4666 
z
" transform="scale(0.015625)"/>
       </defs>
       <use xlink:href="#DejaVuSans-30"/>
       <use xlink:href="#DejaVuSans-2e" x="63.623047"/>
       <use xlink:href="#DejaVuSans-34" x="95.410156"/>
      </g>
     </g>
    </g>
    <g id="ytick_4">
     <g id="line2d_13">
      <g>
       <use xlink:href="#mc3e4fff557" x="57.6" y="184.322294" style="stroke: #000000; stroke-width: 0.8"/>
      </g>
     </g>
     <g id="text_14">
      <!-- 0.5 -->
      <g transform="translate(34.696875 188.121513) scale(0.1 -0.1)">
       <use xlink:href="#DejaVuSans-30"/>
       <use xlink:href="#DejaVuSans-2e" x="63.623047"/>
       <use xlink:href="#DejaVuSans-35" x="95.410156"/>
      </g>
     </g>
    </g>
    <g id="ytick_5">
     <g id="line2d_14">
      <g>
       <use xlink:href="#mc3e4fff557" x="57.6" y="152.359768" style="stroke: #000000; stroke-width: 0.8"/>
      </g>
     </g>
     <g id="text_15">
      <!-- 0.6 -->
      <g transform="translate(34.696875 156.158986) scale(0.1 -0.1)">
       <defs>
        <path id="DejaVuSans-36" d="M 2113 2584 
Q 1688 2584 1439 2293 
Q 1191 2003 1191 1497 
Q 1191 994 1439 701 
Q 1688 409 2113 409 
Q 2538 409 2786 701 
Q 3034 994 3034 1497 
Q 3034 2003 2786 2293 
Q 2538 2584 2113 2584 
z
M 3366 4563 
L 3366 3988 
Q 3128 4100 2886 4159 
Q 2644 4219 2406 4219 
Q 1781 4219 1451 3797 
Q 1122 3375 1075 2522 
Q 1259 2794 1537 2939 
Q 1816 3084 2150 3084 
Q 2853 3084 3261 2657 
Q 3669 2231 3669 1497 
Q 3669 778 3244 343 
Q 2819 -91 2113 -91 
Q 1303 -91 875 529 
Q 447 1150 447 2328 
Q 447 3434 972 4092 
Q 1497 4750 2381 4750 
Q 2619 4750 2861 4703 
Q 3103 4656 3366 4563 
z
" transform="scale(0.015625)"/>
       </defs>
       <use xlink:href="#DejaVuSans-30"/>
       <use xlink:href="#DejaVuSans-2e" x="63.623047"/>
       <use xlink:href="#DejaVuSans-36" x="95.410156"/>
      </g>
     </g>
    </g>
    <g id="ytick_6">
     <g id="line2d_15">
      <g>
       <use xlink:href="#mc3e4fff557" x="57.6" y="120.397241" style="stroke: #000000; stroke-width: 0.8"/>
      </g>
     </g>
     <g id="text_16">
      <!-- 0.7 -->
      <g transform="translate(34.696875 124.19646) scale(0.1 -0.1)">
       <use xlink:href="#DejaVuSans-30"/>
       <use xlink:href="#DejaVuSans-2e" x="63.623047"/>
       <use xlink:href="#DejaVuSans-37" x="95.410156"/>
      </g>
     </g>
    </g>
    <g id="ytick_7">
     <g id="line2d_16">
      <g>
       <use xlink:href="#mc3e4fff557" x="57.6" y="88.434714" style="stroke: #000000; stroke-width: 0.8"/>
      </g>
     </g>
     <g id="text_17">
      <!-- 0.8 -->
      <g transform="translate(34.696875 92.233933) scale(0.1 -0.1)">
       <defs>
        <path id="DejaVuSans-38" d="M 2034 2216 
Q 1584 2216 1326 1975 
Q 1069 1734 1069 1313 
Q 1069 891 1326 650 
Q 1584 409 2034 409 
Q 2484 409 2743 651 
Q 3003 894 3003 1313 
Q 3003 1734 2745 1975 
Q 2488 2216 2034 2216 
z
M 1403 2484 
Q 997 2584 770 2862 
Q 544 3141 544 3541 
Q 544 4100 942 4425 
Q 1341 4750 2034 4750 
Q 2731 4750 3128 4425 
Q 3525 4100 3525 3541 
Q 3525 3141 3298 2862 
Q 3072 2584 2669 2484 
Q 3125 2378 3379 2068 
Q 3634 1759 3634 1313 
Q 3634 634 3220 271 
Q 2806 -91 2034 -91 
Q 1263 -91 848 271 
Q 434 634 434 1313 
Q 434 1759 690 2068 
Q 947 2378 1403 2484 
z
M 1172 3481 
Q 1172 3119 1398 2916 
Q 1625 2713 2034 2713 
Q 2441 2713 2670 2916 
Q 2900 3119 2900 3481 
Q 2900 3844 2670 4047 
Q 2441 4250 2034 4250 
Q 1625 4250 1398 4047 
Q 1172 3844 1172 3481 
z
" transform="scale(0.015625)"/>
       </defs>
       <use xlink:href="#DejaVuSans-30"/>
       <use xlink:href="#DejaVuSans-2e" x="63.623047"/>
       <use xlink:href="#DejaVuSans-38" x="95.410156"/>
      </g>
     </g>
    </g>
    <g id="ytick_8">
     <g id="line2d_17">
      <g>
       <use xlink:href="#mc3e4fff557" x="57.6" y="56.472188" style="stroke: #000000; stroke-width: 0.8"/>
      </g>
     </g>
     <g id="text_18">
      <!-- 0.9 -->
      <g transform="translate(34.696875 60.271407) scale(0.1 -0.1)">
       <defs>
        <path id="DejaVuSans-39" d="M 703 97 
L 703 672 
Q 941 559 1184 500 
Q 1428 441 1663 441 
Q 2288 441 2617 861 
Q 2947 1281 2994 2138 
Q 2813 1869 2534 1725 
Q 2256 1581 1919 1581 
Q 1219 1581 811 2004 
Q 403 2428 403 3163 
Q 403 3881 828 4315 
Q 1253 4750 1959 4750 
Q 2769 4750 3195 4129 
Q 3622 3509 3622 2328 
Q 3622 1225 3098 567 
Q 2575 -91 1691 -91 
Q 1453 -91 1209 -44 
Q 966 3 703 97 
z
M 1959 2075 
Q 2384 2075 2632 2365 
Q 2881 2656 2881 3163 
Q 2881 3666 2632 3958 
Q 2384 4250 1959 4250 
Q 1534 4250 1286 3958 
Q 1038 3666 1038 3163 
Q 1038 2656 1286 2365 
Q 1534 2075 1959 2075 
z
" transform="scale(0.015625)"/>
       </defs>
       <use xlink:href="#DejaVuSans-30"/>
       <use xlink:href="#DejaVuSans-2e" x="63.623047"/>
       <use xlink:href="#DejaVuSans-39" x="95.410156"/>
      </g>
     </g>
    </g>
    <g id="text_19">
     <!-- Average Loss -->
     <g transform="translate(28.617187 207.617063) rotate(-90) scale(0.1 -0.1)">
      <defs>
       <path id="DejaVuSans-41" d="M 2188 4044 
L 1331 1722 
L 3047 1722 
L 2188 4044 
z
M 1831 4666 
L 2547 4666 
L 4325 0 
L 3669 0 
L 3244 1197 
L 1141 1197 
L 716 0 
L 50 0 
L 1831 4666 
z
" transform="scale(0.015625)"/>
       <path id="DejaVuSans-76" d="M 191 3500 
L 800 3500 
L 1894 563 
L 2988 3500 
L 3597 3500 
L 2284 0 
L 1503 0 
L 191 3500 
z
" transform="scale(0.015625)"/>
       <path id="DejaVuSans-65" d="M 3597 1894 
L 3597 1613 
L 953 1613 
Q 991 1019 1311 708 
Q 1631 397 2203 397 
Q 2534 397 2845 478 
Q 3156 559 3463 722 
L 3463 178 
Q 3153 47 2828 -22 
Q 2503 -91 2169 -91 
Q 1331 -91 842 396 
Q 353 884 353 1716 
Q 353 2575 817 3079 
Q 1281 3584 2069 3584 
Q 2775 3584 3186 3129 
Q 3597 2675 3597 1894 
z
M 3022 2063 
Q 3016 2534 2758 2815 
Q 2500 3097 2075 3097 
Q 1594 3097 1305 2825 
Q 1016 2553 972 2059 
L 3022 2063 
z
" transform="scale(0.015625)"/>
       <path id="DejaVuSans-72" d="M 2631 2963 
Q 2534 3019 2420 3045 
Q 2306 3072 2169 3072 
Q 1681 3072 1420 2755 
Q 1159 2438 1159 1844 
L 1159 0 
L 581 0 
L 581 3500 
L 1159 3500 
L 1159 2956 
Q 1341 3275 1631 3429 
Q 1922 3584 2338 3584 
Q 2397 3584 2469 3576 
Q 2541 3569 2628 3553 
L 2631 2963 
z
" transform="scale(0.015625)"/>
       <path id="DejaVuSans-61" d="M 2194 1759 
Q 1497 1759 1228 1600 
Q 959 1441 959 1056 
Q 959 750 1161 570 
Q 1363 391 1709 391 
Q 2188 391 2477 730 
Q 2766 1069 2766 1631 
L 2766 1759 
L 2194 1759 
z
M 3341 1997 
L 3341 0 
L 2766 0 
L 2766 531 
Q 2569 213 2275 61 
Q 1981 -91 1556 -91 
Q 1019 -91 701 211 
Q 384 513 384 1019 
Q 384 1609 779 1909 
Q 1175 2209 1959 2209 
L 2766 2209 
L 2766 2266 
Q 2766 2663 2505 2880 
Q 2244 3097 1772 3097 
Q 1472 3097 1187 3025 
Q 903 2953 641 2809 
L 641 3341 
Q 956 3463 1253 3523 
Q 1550 3584 1831 3584 
Q 2591 3584 2966 3190 
Q 3341 2797 3341 1997 
z
" transform="scale(0.015625)"/>
       <path id="DejaVuSans-67" d="M 2906 1791 
Q 2906 2416 2648 2759 
Q 2391 3103 1925 3103 
Q 1463 3103 1205 2759 
Q 947 2416 947 1791 
Q 947 1169 1205 825 
Q 1463 481 1925 481 
Q 2391 481 2648 825 
Q 2906 1169 2906 1791 
z
M 3481 434 
Q 3481 -459 3084 -895 
Q 2688 -1331 1869 -1331 
Q 1566 -1331 1297 -1286 
Q 1028 -1241 775 -1147 
L 775 -588 
Q 1028 -725 1275 -790 
Q 1522 -856 1778 -856 
Q 2344 -856 2625 -561 
Q 2906 -266 2906 331 
L 2906 616 
Q 2728 306 2450 153 
Q 2172 0 1784 0 
Q 1141 0 747 490 
Q 353 981 353 1791 
Q 353 2603 747 3093 
Q 1141 3584 1784 3584 
Q 2172 3584 2450 3431 
Q 2728 3278 2906 2969 
L 2906 3500 
L 3481 3500 
L 3481 434 
z
" transform="scale(0.015625)"/>
       <path id="DejaVuSans-20" transform="scale(0.015625)"/>
       <path id="DejaVuSans-4c" d="M 628 4666 
L 1259 4666 
L 1259 531 
L 3531 531 
L 3531 0 
L 628 0 
L 628 4666 
z
" transform="scale(0.015625)"/>
       <path id="DejaVuSans-73" d="M 2834 3397 
L 2834 2853 
Q 2591 2978 2328 3040 
Q 2066 3103 1784 3103 
Q 1356 3103 1142 2972 
Q 928 2841 928 2578 
Q 928 2378 1081 2264 
Q 1234 2150 1697 2047 
L 1894 2003 
Q 2506 1872 2764 1633 
Q 3022 1394 3022 966 
Q 3022 478 2636 193 
Q 2250 -91 1575 -91 
Q 1294 -91 989 -36 
Q 684 19 347 128 
L 347 722 
Q 666 556 975 473 
Q 1284 391 1588 391 
Q 1994 391 2212 530 
Q 2431 669 2431 922 
Q 2431 1156 2273 1281 
Q 2116 1406 1581 1522 
L 1381 1569 
Q 847 1681 609 1914 
Q 372 2147 372 2553 
Q 372 3047 722 3315 
Q 1072 3584 1716 3584 
Q 2034 3584 2315 3537 
Q 2597 3491 2834 3397 
z
" transform="scale(0.015625)"/>
      </defs>
      <use xlink:href="#DejaVuSans-41"/>
      <use xlink:href="#DejaVuSans-76" x="62.533203"/>
      <use xlink:href="#DejaVuSans-65" x="121.712891"/>
      <use xlink:href="#DejaVuSans-72" x="183.236328"/>
      <use xlink:href="#DejaVuSans-61" x="224.349609"/>
      <use xlink:href="#DejaVuSans-67" x="285.628906"/>
      <use xlink:href="#DejaVuSans-65" x="349.105469"/>
      <use xlink:href="#DejaVuSans-20" x="410.628906"/>
      <use xlink:href="#DejaVuSans-4c" x="442.416016"/>
      <use xlink:href="#DejaVuSans-6f" x="496.378906"/>
      <use xlink:href="#DejaVuSans-73" x="557.560547"/>
      <use xlink:href="#DejaVuSans-73" x="609.660156"/>
     </g>
    </g>
   </g>
   <g id="line2d_18">
    <path d="M 73.832727 120.352532 
L 75.464157 120.834964 
L 77.095587 120.664704 
L 78.727017 120.962378 
L 80.358447 122.482031 
L 81.989877 123.047812 
L 83.621307 121.922308 
L 85.252736 121.384056 
L 86.884166 123.164234 
L 88.515596 122.635412 
L 90.147026 123.593513 
L 91.778456 121.519415 
L 93.409886 122.254065 
L 95.041316 122.050827 
L 96.672746 123.697095 
L 98.304175 122.229737 
L 99.935605 123.905095 
L 101.567035 121.794628 
L 103.198465 121.459727 
L 104.829895 123.632721 
L 106.461325 122.501635 
L 108.092755 122.274755 
L 109.724185 121.8245 
L 111.355614 122.143949 
L 112.987044 121.008025 
L 114.618474 124.828123 
L 117.881334 124.956833 
L 119.512764 127.488293 
L 121.144194 125.230331 
L 122.775624 126.95387 
L 124.407053 126.657624 
L 126.038483 128.077735 
L 127.669913 126.015143 
L 129.301343 127.337941 
L 130.932773 133.890355 
L 132.564203 127.023311 
L 135.827063 136.064244 
L 137.458492 133.733412 
L 139.089922 137.163038 
L 140.721352 138.738168 
L 142.352782 140.566698 
L 143.984212 141.877074 
L 145.615642 140.594227 
L 147.247072 146.905168 
L 150.509931 152.521142 
L 152.141361 148.39632 
L 153.772791 151.337532 
L 155.404221 151.768355 
L 157.035651 148.904072 
L 158.667081 150.419534 
L 160.298511 161.996251 
L 161.929941 159.373936 
L 163.56137 161.376441 
L 165.1928 158.145499 
L 166.82423 159.88525 
L 168.45566 167.724036 
L 170.08709 158.329324 
L 171.71852 168.995815 
L 173.34995 160.212435 
L 174.98138 168.159984 
L 176.61281 170.624307 
L 178.244239 168.101592 
L 179.875669 169.122467 
L 181.507099 170.869572 
L 183.138529 171.436267 
L 184.769959 171.348746 
L 186.401389 180.187242 
L 188.032819 168.848016 
L 189.664249 179.321081 
L 191.295678 179.159413 
L 192.927108 181.316823 
L 194.558538 176.253808 
L 196.189968 173.321569 
L 197.821398 178.177498 
L 199.452828 185.696692 
L 201.084258 188.231895 
L 202.715688 189.356446 
L 204.347117 186.777959 
L 205.978547 186.423865 
L 207.609977 185.055497 
L 209.241407 181.045287 
L 210.872837 192.956237 
L 212.504267 179.389875 
L 214.135697 194.484987 
L 215.767127 195.842506 
L 217.398556 188.897799 
L 219.029986 197.105244 
L 220.661416 185.63268 
L 222.292846 200.562123 
L 223.924276 196.319508 
L 225.555706 199.8183 
L 227.187136 193.407931 
L 228.818566 197.714243 
L 230.449995 206.4977 
L 232.081425 199.766976 
L 233.712855 200.858102 
L 235.344285 195.287993 
L 236.975715 212.040241 
L 238.607145 210.597717 
L 240.238575 200.701016 
L 241.870005 206.225592 
L 243.501434 202.716723 
L 245.132864 214.78496 
L 246.764294 207.428139 
L 248.395724 205.32031 
L 250.027154 213.204381 
L 251.658584 200.238873 
L 253.290014 208.720731 
L 254.921444 213.585918 
L 256.552873 214.149756 
L 258.184303 217.530802 
L 259.815733 210.406377 
L 263.078593 221.095987 
L 264.710023 213.532223 
L 266.341453 215.599977 
L 267.972883 223.534686 
L 269.604312 227.199871 
L 271.235742 223.365912 
L 272.867172 224.169433 
L 274.498602 218.979471 
L 276.130032 225.781141 
L 277.761462 219.484469 
L 279.392892 232.448986 
L 281.024322 225.968833 
L 282.655751 234.362446 
L 284.287181 223.363302 
L 285.918611 225.81028 
L 287.550041 228.478469 
L 289.181471 234.017229 
L 290.812901 234.746765 
L 292.444331 236.165009 
L 294.075761 246.184647 
L 295.70719 223.884465 
L 297.33862 234.845364 
L 298.97005 232.662007 
L 300.60148 232.820808 
L 302.23291 238.223152 
L 303.86434 241.968894 
L 305.49577 241.375803 
L 307.1272 248.107651 
L 308.75863 242.749515 
L 310.390059 239.838242 
L 312.021489 262.769969 
L 313.652919 247.982732 
L 315.284349 250.027026 
L 316.915779 251.770968 
L 318.547209 259.994187 
L 320.178639 247.63021 
L 321.810069 254.418887 
L 323.441498 252.709237 
L 325.072928 258.652825 
L 326.704358 256.224708 
L 328.335788 256.626439 
L 329.967218 262.545632 
L 331.598648 256.235586 
L 333.230078 255.851886 
L 334.861508 250.565078 
L 336.492937 265.232463 
L 338.124367 270.778039 
L 339.755797 256.422954 
L 341.387227 255.503631 
L 343.018657 272.144997 
L 344.650087 274.325868 
L 346.281517 261.356783 
L 347.912947 269.127942 
L 349.544376 273.584654 
L 351.175806 270.342187 
L 352.807236 270.755806 
L 354.438666 266.990451 
L 356.070096 265.69082 
L 357.701526 263.741673 
L 359.332956 279.895938 
L 360.964386 281.206162 
L 362.595815 281.552907 
L 364.227245 280.507199 
L 365.858675 282.679383 
L 367.490105 281.823115 
L 369.121535 278.616754 
L 370.752965 286.123012 
L 372.384395 285.89476 
L 374.015825 285.494467 
L 375.647254 274.397524 
L 377.278684 280.156806 
L 378.910114 277.45411 
L 380.541544 287.854361 
L 382.172974 283.544291 
L 383.804404 289.096534 
L 385.435834 285.775176 
L 387.067264 273.115329 
L 388.698693 294.137212 
L 390.330123 287.995444 
L 391.961553 283.097094 
L 393.592983 292.986632 
L 395.224413 295.488 
L 396.855843 288.873569 
L 398.487273 292.323137 
L 398.487273 292.323137 
" clip-path="url(#p044405b900)" style="fill: none; stroke: #008000; stroke-width: 1.5; stroke-linecap: square"/>
   </g>
   <g id="line2d_19">
    <path d="M 73.832727 123.097955 
L 75.464157 120.566476 
L 77.095587 120.579412 
L 78.727017 122.730115 
L 80.358447 122.63686 
L 81.989877 122.888145 
L 83.621307 123.844569 
L 85.252736 123.466252 
L 86.884166 123.296906 
L 88.515596 122.93482 
L 90.147026 121.168683 
L 91.778456 122.804701 
L 93.409886 122.614932 
L 95.041316 123.123884 
L 96.672746 122.867245 
L 98.304175 121.582665 
L 99.935605 121.467672 
L 101.567035 121.961497 
L 103.198465 123.577453 
L 106.461325 122.423354 
L 109.724185 122.913978 
L 111.355614 123.200603 
L 112.987044 123.085572 
L 114.618474 122.293653 
L 116.249904 122.28127 
L 117.881334 120.480555 
L 119.512764 117.042547 
L 121.144194 120.4881 
L 122.775624 118.844328 
L 124.407053 121.426578 
L 126.038483 120.477488 
L 127.669913 124.542375 
L 129.301343 119.441506 
L 130.932773 132.905754 
L 132.564203 117.583542 
L 134.195633 121.375236 
L 135.827063 118.231224 
L 139.089922 114.950959 
L 140.721352 117.945305 
L 142.352782 139.650509 
L 143.984212 123.003137 
L 145.615642 103.443035 
L 147.247072 147.090821 
L 148.878502 105.42786 
L 150.509931 141.144043 
L 152.141361 159.821181 
L 153.772791 115.780141 
L 155.404221 170.496569 
L 157.035651 129.045648 
L 158.667081 118.805388 
L 160.298511 158.2258 
L 161.929941 102.21919 
L 163.56137 165.609835 
L 165.1928 178.897593 
L 166.82423 136.41589 
L 168.45566 166.534883 
L 170.08709 161.48549 
L 171.71852 146.796481 
L 173.34995 186.307119 
L 174.98138 160.808583 
L 176.61281 160.030534 
L 178.244239 142.640892 
L 179.875669 164.047298 
L 181.507099 170.294494 
L 183.138529 197.12863 
L 184.769959 185.243617 
L 186.401389 189.921256 
L 188.032819 181.818478 
L 189.664249 202.623515 
L 191.295678 170.126425 
L 192.927108 143.978721 
L 194.558538 200.376613 
L 196.189968 198.42306 
L 197.821398 195.641135 
L 199.452828 163.40958 
L 201.084258 210.080069 
L 202.715688 206.22243 
L 204.347117 214.674149 
L 205.978547 167.117124 
L 207.609977 199.744048 
L 209.241407 209.728927 
L 210.872837 217.262895 
L 212.504267 202.09094 
L 214.135697 177.179637 
L 215.767127 211.480281 
L 217.398556 216.315177 
L 219.029986 202.453941 
L 220.661416 219.59729 
L 222.292846 160.902943 
L 223.924276 205.612564 
L 225.555706 218.975441 
L 227.187136 215.328632 
L 228.818566 219.513636 
L 230.449995 218.726957 
L 232.081425 203.397763 
L 235.344285 219.354407 
L 236.975715 212.591325 
L 238.607145 222.748274 
L 240.238575 211.934279 
L 241.870005 216.332932 
L 243.501434 223.710624 
L 245.132864 221.552186 
L 246.764294 209.905236 
L 248.395724 218.825394 
L 250.027154 219.005228 
L 251.658584 194.871869 
L 253.290014 221.416008 
L 254.921444 176.396253 
L 256.552873 213.400817 
L 258.184303 207.488674 
L 259.815733 198.328319 
L 261.447163 221.841553 
L 263.078593 217.377088 
L 264.710023 167.912929 
L 266.341453 217.41117 
L 267.972883 208.362045 
L 269.604312 203.712269 
L 271.235742 215.764351 
L 272.867172 186.892485 
L 274.498602 203.968726 
L 277.761462 223.146633 
L 279.392892 215.566124 
L 281.024322 218.885482 
L 282.655751 206.105132 
L 284.287181 224.013356 
L 285.918611 216.210862 
L 287.550041 197.670054 
L 289.181471 217.499472 
L 290.812901 125.229779 
L 292.444331 202.664094 
L 294.075761 211.070662 
L 295.70719 204.171535 
L 297.33862 215.98321 
L 298.97005 217.434851 
L 300.60148 220.749465 
L 302.23291 209.762267 
L 303.86434 219.847851 
L 305.49577 212.10834 
L 307.1272 209.82425 
L 308.75863 206.501339 
L 310.390059 219.056247 
L 312.021489 220.646951 
L 313.652919 226.880411 
L 315.284349 206.595251 
L 316.915779 199.816795 
L 318.547209 206.135099 
L 320.178639 210.22199 
L 321.810069 210.999163 
L 323.441498 214.398221 
L 325.072928 201.896714 
L 326.704358 186.197061 
L 328.335788 219.928551 
L 329.967218 188.211129 
L 331.598648 188.844018 
L 333.230078 209.208736 
L 334.861508 220.954284 
L 336.492937 218.293181 
L 338.124367 226.7955 
L 339.755797 219.649642 
L 341.387227 204.204132 
L 343.018657 217.372535 
L 344.650087 205.649238 
L 346.281517 53.568 
L 347.912947 208.823845 
L 349.544376 170.130749 
L 351.175806 190.34943 
L 352.807236 199.552889 
L 354.438666 203.550001 
L 356.070096 197.982064 
L 357.701526 202.886002 
L 359.332956 211.266812 
L 360.964386 178.356864 
L 362.595815 194.700065 
L 364.227245 190.011415 
L 365.858675 193.360341 
L 367.490105 186.874748 
L 369.121535 148.894718 
L 370.752965 167.518436 
L 372.384395 177.616099 
L 374.015825 175.319654 
L 375.647254 178.261647 
L 377.278684 198.619058 
L 378.910114 196.844253 
L 380.541544 169.475847 
L 382.172974 180.200159 
L 383.804404 146.943404 
L 385.435834 159.156715 
L 387.067264 193.534192 
L 388.698693 195.882513 
L 390.330123 189.376717 
L 391.961553 203.245888 
L 393.592983 192.903751 
L 395.224413 188.854125 
L 396.855843 200.554674 
L 398.487273 180.286841 
L 398.487273 180.286841 
" clip-path="url(#p044405b900)" style="fill: none; stroke: #ff0000; stroke-width: 1.5; stroke-linecap: square"/>
   </g>
   <g id="patch_3">
    <path d="M 57.6 307.584 
L 57.6 41.472 
" style="fill: none; stroke: #000000; stroke-width: 0.8; stroke-linejoin: miter; stroke-linecap: square"/>
   </g>
   <g id="patch_4">
    <path d="M 414.72 307.584 
L 414.72 41.472 
" style="fill: none; stroke: #000000; stroke-width: 0.8; stroke-linejoin: miter; stroke-linecap: square"/>
   </g>
   <g id="patch_5">
    <path d="M 57.6 307.584 
L 414.72 307.584 
" style="fill: none; stroke: #000000; stroke-width: 0.8; stroke-linejoin: miter; stroke-linecap: square"/>
   </g>
   <g id="patch_6">
    <path d="M 57.6 41.472 
L 414.72 41.472 
" style="fill: none; stroke: #000000; stroke-width: 0.8; stroke-linejoin: miter; stroke-linecap: square"/>
   </g>
   <g id="text_20">
    <!-- Average Loss per epoch, 2 class -->
    <g transform="translate(139.965937 35.472) scale(0.12 -0.12)">
     <defs>
      <path id="DejaVuSans-2c" d="M 750 794 
L 1409 794 
L 1409 256 
L 897 -744 
L 494 -744 
L 750 256 
L 750 794 
z
" transform="scale(0.015625)"/>
      <path id="DejaVuSans-6c" d="M 603 4863 
L 1178 4863 
L 1178 0 
L 603 0 
L 603 4863 
z
" transform="scale(0.015625)"/>
     </defs>
     <use xlink:href="#DejaVuSans-41"/>
     <use xlink:href="#DejaVuSans-76" x="62.533203"/>
     <use xlink:href="#DejaVuSans-65" x="121.712891"/>
     <use xlink:href="#DejaVuSans-72" x="183.236328"/>
     <use xlink:href="#DejaVuSans-61" x="224.349609"/>
     <use xlink:href="#DejaVuSans-67" x="285.628906"/>
     <use xlink:href="#DejaVuSans-65" x="349.105469"/>
     <use xlink:href="#DejaVuSans-20" x="410.628906"/>
     <use xlink:href="#DejaVuSans-4c" x="442.416016"/>
     <use xlink:href="#DejaVuSans-6f" x="496.378906"/>
     <use xlink:href="#DejaVuSans-73" x="557.560547"/>
     <use xlink:href="#DejaVuSans-73" x="609.660156"/>
     <use xlink:href="#DejaVuSans-20" x="661.759766"/>
     <use xlink:href="#DejaVuSans-70" x="693.546875"/>
     <use xlink:href="#DejaVuSans-65" x="757.023438"/>
     <use xlink:href="#DejaVuSans-72" x="818.546875"/>
     <use xlink:href="#DejaVuSans-20" x="859.660156"/>
     <use xlink:href="#DejaVuSans-65" x="891.447266"/>
     <use xlink:href="#DejaVuSans-70" x="952.970703"/>
     <use xlink:href="#DejaVuSans-6f" x="1016.447266"/>
     <use xlink:href="#DejaVuSans-63" x="1077.628906"/>
     <use xlink:href="#DejaVuSans-68" x="1132.609375"/>
     <use xlink:href="#DejaVuSans-2c" x="1195.988281"/>
     <use xlink:href="#DejaVuSans-20" x="1227.775391"/>
     <use xlink:href="#DejaVuSans-32" x="1259.5625"/>
     <use xlink:href="#DejaVuSans-20" x="1323.185547"/>
     <use xlink:href="#DejaVuSans-63" x="1354.972656"/>
     <use xlink:href="#DejaVuSans-6c" x="1409.953125"/>
     <use xlink:href="#DejaVuSans-61" x="1437.736328"/>
     <use xlink:href="#DejaVuSans-73" x="1499.015625"/>
     <use xlink:href="#DejaVuSans-73" x="1551.115234"/>
    </g>
   </g>
   <g id="legend_1">
    <g id="patch_7">
     <path d="M 352.445 78.82825 
L 407.72 78.82825 
Q 409.72 78.82825 409.72 76.82825 
L 409.72 48.472 
Q 409.72 46.472 407.72 46.472 
L 352.445 46.472 
Q 350.445 46.472 350.445 48.472 
L 350.445 76.82825 
Q 350.445 78.82825 352.445 78.82825 
z
" style="fill: #ffffff; opacity: 0.8; stroke: #cccccc; stroke-linejoin: miter"/>
    </g>
    <g id="line2d_20">
     <path d="M 354.445 54.570437 
L 364.445 54.570437 
L 374.445 54.570437 
" style="fill: none; stroke: #008000; stroke-width: 1.5; stroke-linecap: square"/>
    </g>
    <g id="text_21">
     <!-- train -->
     <g transform="translate(382.445 58.070437) scale(0.1 -0.1)">
      <defs>
       <path id="DejaVuSans-74" d="M 1172 4494 
L 1172 3500 
L 2356 3500 
L 2356 3053 
L 1172 3053 
L 1172 1153 
Q 1172 725 1289 603 
Q 1406 481 1766 481 
L 2356 481 
L 2356 0 
L 1766 0 
Q 1100 0 847 248 
Q 594 497 594 1153 
L 594 3053 
L 172 3053 
L 172 3500 
L 594 3500 
L 594 4494 
L 1172 4494 
z
" transform="scale(0.015625)"/>
       <path id="DejaVuSans-69" d="M 603 3500 
L 1178 3500 
L 1178 0 
L 603 0 
L 603 3500 
z
M 603 4863 
L 1178 4863 
L 1178 4134 
L 603 4134 
L 603 4863 
z
" transform="scale(0.015625)"/>
       <path id="DejaVuSans-6e" d="M 3513 2113 
L 3513 0 
L 2938 0 
L 2938 2094 
Q 2938 2591 2744 2837 
Q 2550 3084 2163 3084 
Q 1697 3084 1428 2787 
Q 1159 2491 1159 1978 
L 1159 0 
L 581 0 
L 581 3500 
L 1159 3500 
L 1159 2956 
Q 1366 3272 1645 3428 
Q 1925 3584 2291 3584 
Q 2894 3584 3203 3211 
Q 3513 2838 3513 2113 
z
" transform="scale(0.015625)"/>
      </defs>
      <use xlink:href="#DejaVuSans-74"/>
      <use xlink:href="#DejaVuSans-72" x="39.208984"/>
      <use xlink:href="#DejaVuSans-61" x="80.322266"/>
      <use xlink:href="#DejaVuSans-69" x="141.601562"/>
      <use xlink:href="#DejaVuSans-6e" x="169.384766"/>
     </g>
    </g>
    <g id="line2d_21">
     <path d="M 354.445 69.248562 
L 364.445 69.248562 
L 374.445 69.248562 
" style="fill: none; stroke: #ff0000; stroke-width: 1.5; stroke-linecap: square"/>
    </g>
    <g id="text_22">
     <!-- test -->
     <g transform="translate(382.445 72.748562) scale(0.1 -0.1)">
      <use xlink:href="#DejaVuSans-74"/>
      <use xlink:href="#DejaVuSans-65" x="39.208984"/>
      <use xlink:href="#DejaVuSans-73" x="100.732422"/>
      <use xlink:href="#DejaVuSans-74" x="152.832031"/>
     </g>
    </g>
   </g>
  </g>
 </g>
 <defs>
  <clipPath id="p044405b900">
   <rect x="57.6" y="41.472" width="357.12" height="266.112"/>
  </clipPath>
 </defs>
</svg>
