<?xml version="1.0" encoding="utf-8" standalone="no"?>
<!DOCTYPE svg PUBLIC "-//W3C//DTD SVG 1.1//EN"
  "http://www.w3.org/Graphics/SVG/1.1/DTD/svg11.dtd">
<svg xmlns:xlink="http://www.w3.org/1999/xlink" width="460.8pt" height="345.6pt" viewBox="0 0 460.8 345.6" xmlns="http://www.w3.org/2000/svg" version="1.1">
 <metadata>
  <rdf:RDF xmlns:dc="http://purl.org/dc/elements/1.1/" xmlns:cc="http://creativecommons.org/ns#" xmlns:rdf="http://www.w3.org/1999/02/22-rdf-syntax-ns#">
   <cc:Work>
    <dc:type rdf:resource="http://purl.org/dc/dcmitype/StillImage"/>
    <dc:date>2023-07-26T12:47:47.212331</dc:date>
    <dc:format>image/svg+xml</dc:format>
    <dc:creator>
     <cc:Agent>
      <dc:title>Matplotlib v3.7.1, https://matplotlib.org/</dc:title>
     </cc:Agent>
    </dc:creator>
   </cc:Work>
  </rdf:RDF>
 </metadata>
 <defs>
  <style type="text/css">*{stroke-linejoin: round; stroke-linecap: butt}</style>
 </defs>
 <g id="figure_1">
  <g id="patch_1">
   <path d="M 0 345.6 
L 460.8 345.6 
L 460.8 0 
L 0 0 
z
" style="fill: #ffffff"/>
  </g>
  <g id="axes_1">
   <g id="patch_2">
    <path d="M 57.6 307.584 
L 414.72 307.584 
L 414.72 41.472 
L 57.6 41.472 
z
" style="fill: #ffffff"/>
   </g>
   <g id="matplotlib.axis_1">
    <g id="xtick_1">
     <g id="line2d_1">
      <defs>
       <path id="m9602e6f0ee" d="M 0 0 
L 0 3.5 
" style="stroke: #000000; stroke-width: 0.8"/>
      </defs>
      <g>
       <use xlink:href="#m9602e6f0ee" x="73.832727" y="307.584" style="stroke: #000000; stroke-width: 0.8"/>
      </g>
     </g>
     <g id="text_1">
      <!-- 0 -->
      <g transform="translate(70.651477 322.182437) scale(0.1 -0.1)">
       <defs>
        <path id="DejaVuSans-30" d="M 2034 4250 
Q 1547 4250 1301 3770 
Q 1056 3291 1056 2328 
Q 1056 1369 1301 889 
Q 1547 409 2034 409 
Q 2525 409 2770 889 
Q 3016 1369 3016 2328 
Q 3016 3291 2770 3770 
Q 2525 4250 2034 4250 
z
M 2034 4750 
Q 2819 4750 3233 4129 
Q 3647 3509 3647 2328 
Q 3647 1150 3233 529 
Q 2819 -91 2034 -91 
Q 1250 -91 836 529 
Q 422 1150 422 2328 
Q 422 3509 836 4129 
Q 1250 4750 2034 4750 
z
" transform="scale(0.015625)"/>
       </defs>
       <use xlink:href="#DejaVuSans-30"/>
      </g>
     </g>
    </g>
    <g id="xtick_2">
     <g id="line2d_2">
      <g>
       <use xlink:href="#m9602e6f0ee" x="114.618474" y="307.584" style="stroke: #000000; stroke-width: 0.8"/>
      </g>
     </g>
     <g id="text_2">
      <!-- 25 -->
      <g transform="translate(108.255974 322.182437) scale(0.1 -0.1)">
       <defs>
        <path id="DejaVuSans-32" d="M 1228 531 
L 3431 531 
L 3431 0 
L 469 0 
L 469 531 
Q 828 903 1448 1529 
Q 2069 2156 2228 2338 
Q 2531 2678 2651 2914 
Q 2772 3150 2772 3378 
Q 2772 3750 2511 3984 
Q 2250 4219 1831 4219 
Q 1534 4219 1204 4116 
Q 875 4013 500 3803 
L 500 4441 
Q 881 4594 1212 4672 
Q 1544 4750 1819 4750 
Q 2544 4750 2975 4387 
Q 3406 4025 3406 3419 
Q 3406 3131 3298 2873 
Q 3191 2616 2906 2266 
Q 2828 2175 2409 1742 
Q 1991 1309 1228 531 
z
" transform="scale(0.015625)"/>
        <path id="DejaVuSans-35" d="M 691 4666 
L 3169 4666 
L 3169 4134 
L 1269 4134 
L 1269 2991 
Q 1406 3038 1543 3061 
Q 1681 3084 1819 3084 
Q 2600 3084 3056 2656 
Q 3513 2228 3513 1497 
Q 3513 744 3044 326 
Q 2575 -91 1722 -91 
Q 1428 -91 1123 -41 
Q 819 9 494 109 
L 494 744 
Q 775 591 1075 516 
Q 1375 441 1709 441 
Q 2250 441 2565 725 
Q 2881 1009 2881 1497 
Q 2881 1984 2565 2268 
Q 2250 2553 1709 2553 
Q 1456 2553 1204 2497 
Q 953 2441 691 2322 
L 691 4666 
z
" transform="scale(0.015625)"/>
       </defs>
       <use xlink:href="#DejaVuSans-32"/>
       <use xlink:href="#DejaVuSans-35" x="63.623047"/>
      </g>
     </g>
    </g>
    <g id="xtick_3">
     <g id="line2d_3">
      <g>
       <use xlink:href="#m9602e6f0ee" x="155.404221" y="307.584" style="stroke: #000000; stroke-width: 0.8"/>
      </g>
     </g>
     <g id="text_3">
      <!-- 50 -->
      <g transform="translate(149.041721 322.182437) scale(0.1 -0.1)">
       <use xlink:href="#DejaVuSans-35"/>
       <use xlink:href="#DejaVuSans-30" x="63.623047"/>
      </g>
     </g>
    </g>
    <g id="xtick_4">
     <g id="line2d_4">
      <g>
       <use xlink:href="#m9602e6f0ee" x="196.189968" y="307.584" style="stroke: #000000; stroke-width: 0.8"/>
      </g>
     </g>
     <g id="text_4">
      <!-- 75 -->
      <g transform="translate(189.827468 322.182437) scale(0.1 -0.1)">
       <defs>
        <path id="DejaVuSans-37" d="M 525 4666 
L 3525 4666 
L 3525 4397 
L 1831 0 
L 1172 0 
L 2766 4134 
L 525 4134 
L 525 4666 
z
" transform="scale(0.015625)"/>
       </defs>
       <use xlink:href="#DejaVuSans-37"/>
       <use xlink:href="#DejaVuSans-35" x="63.623047"/>
      </g>
     </g>
    </g>
    <g id="xtick_5">
     <g id="line2d_5">
      <g>
       <use xlink:href="#m9602e6f0ee" x="236.975715" y="307.584" style="stroke: #000000; stroke-width: 0.8"/>
      </g>
     </g>
     <g id="text_5">
      <!-- 100 -->
      <g transform="translate(227.431965 322.182437) scale(0.1 -0.1)">
       <defs>
        <path id="DejaVuSans-31" d="M 794 531 
L 1825 531 
L 1825 4091 
L 703 3866 
L 703 4441 
L 1819 4666 
L 2450 4666 
L 2450 531 
L 3481 531 
L 3481 0 
L 794 0 
L 794 531 
z
" transform="scale(0.015625)"/>
       </defs>
       <use xlink:href="#DejaVuSans-31"/>
       <use xlink:href="#DejaVuSans-30" x="63.623047"/>
       <use xlink:href="#DejaVuSans-30" x="127.246094"/>
      </g>
     </g>
    </g>
    <g id="xtick_6">
     <g id="line2d_6">
      <g>
       <use xlink:href="#m9602e6f0ee" x="277.761462" y="307.584" style="stroke: #000000; stroke-width: 0.8"/>
      </g>
     </g>
     <g id="text_6">
      <!-- 125 -->
      <g transform="translate(268.217712 322.182437) scale(0.1 -0.1)">
       <use xlink:href="#DejaVuSans-31"/>
       <use xlink:href="#DejaVuSans-32" x="63.623047"/>
       <use xlink:href="#DejaVuSans-35" x="127.246094"/>
      </g>
     </g>
    </g>
    <g id="xtick_7">
     <g id="line2d_7">
      <g>
       <use xlink:href="#m9602e6f0ee" x="318.547209" y="307.584" style="stroke: #000000; stroke-width: 0.8"/>
      </g>
     </g>
     <g id="text_7">
      <!-- 150 -->
      <g transform="translate(309.003459 322.182437) scale(0.1 -0.1)">
       <use xlink:href="#DejaVuSans-31"/>
       <use xlink:href="#DejaVuSans-35" x="63.623047"/>
       <use xlink:href="#DejaVuSans-30" x="127.246094"/>
      </g>
     </g>
    </g>
    <g id="xtick_8">
     <g id="line2d_8">
      <g>
       <use xlink:href="#m9602e6f0ee" x="359.332956" y="307.584" style="stroke: #000000; stroke-width: 0.8"/>
      </g>
     </g>
     <g id="text_8">
      <!-- 175 -->
      <g transform="translate(349.789206 322.182437) scale(0.1 -0.1)">
       <use xlink:href="#DejaVuSans-31"/>
       <use xlink:href="#DejaVuSans-37" x="63.623047"/>
       <use xlink:href="#DejaVuSans-35" x="127.246094"/>
      </g>
     </g>
    </g>
    <g id="xtick_9">
     <g id="line2d_9">
      <g>
       <use xlink:href="#m9602e6f0ee" x="400.118703" y="307.584" style="stroke: #000000; stroke-width: 0.8"/>
      </g>
     </g>
     <g id="text_9">
      <!-- 200 -->
      <g transform="translate(390.574953 322.182437) scale(0.1 -0.1)">
       <use xlink:href="#DejaVuSans-32"/>
       <use xlink:href="#DejaVuSans-30" x="63.623047"/>
       <use xlink:href="#DejaVuSans-30" x="127.246094"/>
      </g>
     </g>
    </g>
    <g id="text_10">
     <!-- Epoch -->
     <g transform="translate(220.849063 335.860562) scale(0.1 -0.1)">
      <defs>
       <path id="DejaVuSans-45" d="M 628 4666 
L 3578 4666 
L 3578 4134 
L 1259 4134 
L 1259 2753 
L 3481 2753 
L 3481 2222 
L 1259 2222 
L 1259 531 
L 3634 531 
L 3634 0 
L 628 0 
L 628 4666 
z
" transform="scale(0.015625)"/>
       <path id="DejaVuSans-70" d="M 1159 525 
L 1159 -1331 
L 581 -1331 
L 581 3500 
L 1159 3500 
L 1159 2969 
Q 1341 3281 1617 3432 
Q 1894 3584 2278 3584 
Q 2916 3584 3314 3078 
Q 3713 2572 3713 1747 
Q 3713 922 3314 415 
Q 2916 -91 2278 -91 
Q 1894 -91 1617 61 
Q 1341 213 1159 525 
z
M 3116 1747 
Q 3116 2381 2855 2742 
Q 2594 3103 2138 3103 
Q 1681 3103 1420 2742 
Q 1159 2381 1159 1747 
Q 1159 1113 1420 752 
Q 1681 391 2138 391 
Q 2594 391 2855 752 
Q 3116 1113 3116 1747 
z
" transform="scale(0.015625)"/>
       <path id="DejaVuSans-6f" d="M 1959 3097 
Q 1497 3097 1228 2736 
Q 959 2375 959 1747 
Q 959 1119 1226 758 
Q 1494 397 1959 397 
Q 2419 397 2687 759 
Q 2956 1122 2956 1747 
Q 2956 2369 2687 2733 
Q 2419 3097 1959 3097 
z
M 1959 3584 
Q 2709 3584 3137 3096 
Q 3566 2609 3566 1747 
Q 3566 888 3137 398 
Q 2709 -91 1959 -91 
Q 1206 -91 779 398 
Q 353 888 353 1747 
Q 353 2609 779 3096 
Q 1206 3584 1959 3584 
z
" transform="scale(0.015625)"/>
       <path id="DejaVuSans-63" d="M 3122 3366 
L 3122 2828 
Q 2878 2963 2633 3030 
Q 2388 3097 2138 3097 
Q 1578 3097 1268 2742 
Q 959 2388 959 1747 
Q 959 1106 1268 751 
Q 1578 397 2138 397 
Q 2388 397 2633 464 
Q 2878 531 3122 666 
L 3122 134 
Q 2881 22 2623 -34 
Q 2366 -91 2075 -91 
Q 1284 -91 818 406 
Q 353 903 353 1747 
Q 353 2603 823 3093 
Q 1294 3584 2113 3584 
Q 2378 3584 2631 3529 
Q 2884 3475 3122 3366 
z
" transform="scale(0.015625)"/>
       <path id="DejaVuSans-68" d="M 3513 2113 
L 3513 0 
L 2938 0 
L 2938 2094 
Q 2938 2591 2744 2837 
Q 2550 3084 2163 3084 
Q 1697 3084 1428 2787 
Q 1159 2491 1159 1978 
L 1159 0 
L 581 0 
L 581 4863 
L 1159 4863 
L 1159 2956 
Q 1366 3272 1645 3428 
Q 1925 3584 2291 3584 
Q 2894 3584 3203 3211 
Q 3513 2838 3513 2113 
z
" transform="scale(0.015625)"/>
      </defs>
      <use xlink:href="#DejaVuSans-45"/>
      <use xlink:href="#DejaVuSans-70" x="63.183594"/>
      <use xlink:href="#DejaVuSans-6f" x="126.660156"/>
      <use xlink:href="#DejaVuSans-63" x="187.841797"/>
      <use xlink:href="#DejaVuSans-68" x="242.822266"/>
     </g>
    </g>
   </g>
   <g id="matplotlib.axis_2">
    <g id="ytick_1">
     <g id="line2d_10">
      <defs>
       <path id="mf88868d00d" d="M 0 0 
L -3.5 0 
" style="stroke: #000000; stroke-width: 0.8"/>
      </defs>
      <g>
       <use xlink:href="#mf88868d00d" x="57.6" y="278.37656" style="stroke: #000000; stroke-width: 0.8"/>
      </g>
     </g>
     <g id="text_11">
      <!-- 0.5 -->
      <g transform="translate(34.696875 282.175778) scale(0.1 -0.1)">
       <defs>
        <path id="DejaVuSans-2e" d="M 684 794 
L 1344 794 
L 1344 0 
L 684 0 
L 684 794 
z
" transform="scale(0.015625)"/>
       </defs>
       <use xlink:href="#DejaVuSans-30"/>
       <use xlink:href="#DejaVuSans-2e" x="63.623047"/>
       <use xlink:href="#DejaVuSans-35" x="95.410156"/>
      </g>
     </g>
    </g>
    <g id="ytick_2">
     <g id="line2d_11">
      <g>
       <use xlink:href="#mf88868d00d" x="57.6" y="229.975637" style="stroke: #000000; stroke-width: 0.8"/>
      </g>
     </g>
     <g id="text_12">
      <!-- 0.6 -->
      <g transform="translate(34.696875 233.774855) scale(0.1 -0.1)">
       <defs>
        <path id="DejaVuSans-36" d="M 2113 2584 
Q 1688 2584 1439 2293 
Q 1191 2003 1191 1497 
Q 1191 994 1439 701 
Q 1688 409 2113 409 
Q 2538 409 2786 701 
Q 3034 994 3034 1497 
Q 3034 2003 2786 2293 
Q 2538 2584 2113 2584 
z
M 3366 4563 
L 3366 3988 
Q 3128 4100 2886 4159 
Q 2644 4219 2406 4219 
Q 1781 4219 1451 3797 
Q 1122 3375 1075 2522 
Q 1259 2794 1537 2939 
Q 1816 3084 2150 3084 
Q 2853 3084 3261 2657 
Q 3669 2231 3669 1497 
Q 3669 778 3244 343 
Q 2819 -91 2113 -91 
Q 1303 -91 875 529 
Q 447 1150 447 2328 
Q 447 3434 972 4092 
Q 1497 4750 2381 4750 
Q 2619 4750 2861 4703 
Q 3103 4656 3366 4563 
z
" transform="scale(0.015625)"/>
       </defs>
       <use xlink:href="#DejaVuSans-30"/>
       <use xlink:href="#DejaVuSans-2e" x="63.623047"/>
       <use xlink:href="#DejaVuSans-36" x="95.410156"/>
      </g>
     </g>
    </g>
    <g id="ytick_3">
     <g id="line2d_12">
      <g>
       <use xlink:href="#mf88868d00d" x="57.6" y="181.574714" style="stroke: #000000; stroke-width: 0.8"/>
      </g>
     </g>
     <g id="text_13">
      <!-- 0.7 -->
      <g transform="translate(34.696875 185.373933) scale(0.1 -0.1)">
       <use xlink:href="#DejaVuSans-30"/>
       <use xlink:href="#DejaVuSans-2e" x="63.623047"/>
       <use xlink:href="#DejaVuSans-37" x="95.410156"/>
      </g>
     </g>
    </g>
    <g id="ytick_4">
     <g id="line2d_13">
      <g>
       <use xlink:href="#mf88868d00d" x="57.6" y="133.173791" style="stroke: #000000; stroke-width: 0.8"/>
      </g>
     </g>
     <g id="text_14">
      <!-- 0.8 -->
      <g transform="translate(34.696875 136.97301) scale(0.1 -0.1)">
       <defs>
        <path id="DejaVuSans-38" d="M 2034 2216 
Q 1584 2216 1326 1975 
Q 1069 1734 1069 1313 
Q 1069 891 1326 650 
Q 1584 409 2034 409 
Q 2484 409 2743 651 
Q 3003 894 3003 1313 
Q 3003 1734 2745 1975 
Q 2488 2216 2034 2216 
z
M 1403 2484 
Q 997 2584 770 2862 
Q 544 3141 544 3541 
Q 544 4100 942 4425 
Q 1341 4750 2034 4750 
Q 2731 4750 3128 4425 
Q 3525 4100 3525 3541 
Q 3525 3141 3298 2862 
Q 3072 2584 2669 2484 
Q 3125 2378 3379 2068 
Q 3634 1759 3634 1313 
Q 3634 634 3220 271 
Q 2806 -91 2034 -91 
Q 1263 -91 848 271 
Q 434 634 434 1313 
Q 434 1759 690 2068 
Q 947 2378 1403 2484 
z
M 1172 3481 
Q 1172 3119 1398 2916 
Q 1625 2713 2034 2713 
Q 2441 2713 2670 2916 
Q 2900 3119 2900 3481 
Q 2900 3844 2670 4047 
Q 2441 4250 2034 4250 
Q 1625 4250 1398 4047 
Q 1172 3844 1172 3481 
z
" transform="scale(0.015625)"/>
       </defs>
       <use xlink:href="#DejaVuSans-30"/>
       <use xlink:href="#DejaVuSans-2e" x="63.623047"/>
       <use xlink:href="#DejaVuSans-38" x="95.410156"/>
      </g>
     </g>
    </g>
    <g id="ytick_5">
     <g id="line2d_14">
      <g>
       <use xlink:href="#mf88868d00d" x="57.6" y="84.772868" style="stroke: #000000; stroke-width: 0.8"/>
      </g>
     </g>
     <g id="text_15">
      <!-- 0.9 -->
      <g transform="translate(34.696875 88.572087) scale(0.1 -0.1)">
       <defs>
        <path id="DejaVuSans-39" d="M 703 97 
L 703 672 
Q 941 559 1184 500 
Q 1428 441 1663 441 
Q 2288 441 2617 861 
Q 2947 1281 2994 2138 
Q 2813 1869 2534 1725 
Q 2256 1581 1919 1581 
Q 1219 1581 811 2004 
Q 403 2428 403 3163 
Q 403 3881 828 4315 
Q 1253 4750 1959 4750 
Q 2769 4750 3195 4129 
Q 3622 3509 3622 2328 
Q 3622 1225 3098 567 
Q 2575 -91 1691 -91 
Q 1453 -91 1209 -44 
Q 966 3 703 97 
z
M 1959 2075 
Q 2384 2075 2632 2365 
Q 2881 2656 2881 3163 
Q 2881 3666 2632 3958 
Q 2384 4250 1959 4250 
Q 1534 4250 1286 3958 
Q 1038 3666 1038 3163 
Q 1038 2656 1286 2365 
Q 1534 2075 1959 2075 
z
" transform="scale(0.015625)"/>
       </defs>
       <use xlink:href="#DejaVuSans-30"/>
       <use xlink:href="#DejaVuSans-2e" x="63.623047"/>
       <use xlink:href="#DejaVuSans-39" x="95.410156"/>
      </g>
     </g>
    </g>
    <g id="text_16">
     <!-- Balanced Accuracy -->
     <g transform="translate(28.617187 222.061594) rotate(-90) scale(0.1 -0.1)">
      <defs>
       <path id="DejaVuSans-42" d="M 1259 2228 
L 1259 519 
L 2272 519 
Q 2781 519 3026 730 
Q 3272 941 3272 1375 
Q 3272 1813 3026 2020 
Q 2781 2228 2272 2228 
L 1259 2228 
z
M 1259 4147 
L 1259 2741 
L 2194 2741 
Q 2656 2741 2882 2914 
Q 3109 3088 3109 3444 
Q 3109 3797 2882 3972 
Q 2656 4147 2194 4147 
L 1259 4147 
z
M 628 4666 
L 2241 4666 
Q 2963 4666 3353 4366 
Q 3744 4066 3744 3513 
Q 3744 3084 3544 2831 
Q 3344 2578 2956 2516 
Q 3422 2416 3680 2098 
Q 3938 1781 3938 1306 
Q 3938 681 3513 340 
Q 3088 0 2303 0 
L 628 0 
L 628 4666 
z
" transform="scale(0.015625)"/>
       <path id="DejaVuSans-61" d="M 2194 1759 
Q 1497 1759 1228 1600 
Q 959 1441 959 1056 
Q 959 750 1161 570 
Q 1363 391 1709 391 
Q 2188 391 2477 730 
Q 2766 1069 2766 1631 
L 2766 1759 
L 2194 1759 
z
M 3341 1997 
L 3341 0 
L 2766 0 
L 2766 531 
Q 2569 213 2275 61 
Q 1981 -91 1556 -91 
Q 1019 -91 701 211 
Q 384 513 384 1019 
Q 384 1609 779 1909 
Q 1175 2209 1959 2209 
L 2766 2209 
L 2766 2266 
Q 2766 2663 2505 2880 
Q 2244 3097 1772 3097 
Q 1472 3097 1187 3025 
Q 903 2953 641 2809 
L 641 3341 
Q 956 3463 1253 3523 
Q 1550 3584 1831 3584 
Q 2591 3584 2966 3190 
Q 3341 2797 3341 1997 
z
" transform="scale(0.015625)"/>
       <path id="DejaVuSans-6c" d="M 603 4863 
L 1178 4863 
L 1178 0 
L 603 0 
L 603 4863 
z
" transform="scale(0.015625)"/>
       <path id="DejaVuSans-6e" d="M 3513 2113 
L 3513 0 
L 2938 0 
L 2938 2094 
Q 2938 2591 2744 2837 
Q 2550 3084 2163 3084 
Q 1697 3084 1428 2787 
Q 1159 2491 1159 1978 
L 1159 0 
L 581 0 
L 581 3500 
L 1159 3500 
L 1159 2956 
Q 1366 3272 1645 3428 
Q 1925 3584 2291 3584 
Q 2894 3584 3203 3211 
Q 3513 2838 3513 2113 
z
" transform="scale(0.015625)"/>
       <path id="DejaVuSans-65" d="M 3597 1894 
L 3597 1613 
L 953 1613 
Q 991 1019 1311 708 
Q 1631 397 2203 397 
Q 2534 397 2845 478 
Q 3156 559 3463 722 
L 3463 178 
Q 3153 47 2828 -22 
Q 2503 -91 2169 -91 
Q 1331 -91 842 396 
Q 353 884 353 1716 
Q 353 2575 817 3079 
Q 1281 3584 2069 3584 
Q 2775 3584 3186 3129 
Q 3597 2675 3597 1894 
z
M 3022 2063 
Q 3016 2534 2758 2815 
Q 2500 3097 2075 3097 
Q 1594 3097 1305 2825 
Q 1016 2553 972 2059 
L 3022 2063 
z
" transform="scale(0.015625)"/>
       <path id="DejaVuSans-64" d="M 2906 2969 
L 2906 4863 
L 3481 4863 
L 3481 0 
L 2906 0 
L 2906 525 
Q 2725 213 2448 61 
Q 2172 -91 1784 -91 
Q 1150 -91 751 415 
Q 353 922 353 1747 
Q 353 2572 751 3078 
Q 1150 3584 1784 3584 
Q 2172 3584 2448 3432 
Q 2725 3281 2906 2969 
z
M 947 1747 
Q 947 1113 1208 752 
Q 1469 391 1925 391 
Q 2381 391 2643 752 
Q 2906 1113 2906 1747 
Q 2906 2381 2643 2742 
Q 2381 3103 1925 3103 
Q 1469 3103 1208 2742 
Q 947 2381 947 1747 
z
" transform="scale(0.015625)"/>
       <path id="DejaVuSans-20" transform="scale(0.015625)"/>
       <path id="DejaVuSans-41" d="M 2188 4044 
L 1331 1722 
L 3047 1722 
L 2188 4044 
z
M 1831 4666 
L 2547 4666 
L 4325 0 
L 3669 0 
L 3244 1197 
L 1141 1197 
L 716 0 
L 50 0 
L 1831 4666 
z
" transform="scale(0.015625)"/>
       <path id="DejaVuSans-75" d="M 544 1381 
L 544 3500 
L 1119 3500 
L 1119 1403 
Q 1119 906 1312 657 
Q 1506 409 1894 409 
Q 2359 409 2629 706 
Q 2900 1003 2900 1516 
L 2900 3500 
L 3475 3500 
L 3475 0 
L 2900 0 
L 2900 538 
Q 2691 219 2414 64 
Q 2138 -91 1772 -91 
Q 1169 -91 856 284 
Q 544 659 544 1381 
z
M 1991 3584 
L 1991 3584 
z
" transform="scale(0.015625)"/>
       <path id="DejaVuSans-72" d="M 2631 2963 
Q 2534 3019 2420 3045 
Q 2306 3072 2169 3072 
Q 1681 3072 1420 2755 
Q 1159 2438 1159 1844 
L 1159 0 
L 581 0 
L 581 3500 
L 1159 3500 
L 1159 2956 
Q 1341 3275 1631 3429 
Q 1922 3584 2338 3584 
Q 2397 3584 2469 3576 
Q 2541 3569 2628 3553 
L 2631 2963 
z
" transform="scale(0.015625)"/>
       <path id="DejaVuSans-79" d="M 2059 -325 
Q 1816 -950 1584 -1140 
Q 1353 -1331 966 -1331 
L 506 -1331 
L 506 -850 
L 844 -850 
Q 1081 -850 1212 -737 
Q 1344 -625 1503 -206 
L 1606 56 
L 191 3500 
L 800 3500 
L 1894 763 
L 2988 3500 
L 3597 3500 
L 2059 -325 
z
" transform="scale(0.015625)"/>
      </defs>
      <use xlink:href="#DejaVuSans-42"/>
      <use xlink:href="#DejaVuSans-61" x="68.603516"/>
      <use xlink:href="#DejaVuSans-6c" x="129.882812"/>
      <use xlink:href="#DejaVuSans-61" x="157.666016"/>
      <use xlink:href="#DejaVuSans-6e" x="218.945312"/>
      <use xlink:href="#DejaVuSans-63" x="282.324219"/>
      <use xlink:href="#DejaVuSans-65" x="337.304688"/>
      <use xlink:href="#DejaVuSans-64" x="398.828125"/>
      <use xlink:href="#DejaVuSans-20" x="462.304688"/>
      <use xlink:href="#DejaVuSans-41" x="494.091797"/>
      <use xlink:href="#DejaVuSans-63" x="560.75"/>
      <use xlink:href="#DejaVuSans-63" x="615.730469"/>
      <use xlink:href="#DejaVuSans-75" x="670.710938"/>
      <use xlink:href="#DejaVuSans-72" x="734.089844"/>
      <use xlink:href="#DejaVuSans-61" x="775.203125"/>
      <use xlink:href="#DejaVuSans-63" x="836.482422"/>
      <use xlink:href="#DejaVuSans-79" x="891.462891"/>
     </g>
    </g>
   </g>
   <g id="line2d_15">
    <path d="M 73.832727 287.167329 
L 75.464157 295.488 
L 77.095587 279.805648 
L 78.727017 281.526185 
L 80.358447 270.497786 
L 81.989877 264.386545 
L 83.621307 268.203727 
L 85.252736 278.35775 
L 86.884166 270.939669 
L 88.515596 266.661795 
L 90.147026 250.528169 
L 91.778456 272.716635 
L 93.409886 266.473756 
L 95.041316 277.765447 
L 96.672746 250.575164 
L 98.304175 260.287333 
L 99.935605 256.648786 
L 101.567035 268.974664 
L 103.198465 267.160107 
L 106.461325 275.546598 
L 108.092755 276.505574 
L 109.724185 277.20133 
L 111.355614 270.939669 
L 112.987044 280.144121 
L 114.618474 250.434149 
L 116.249904 251.722208 
L 117.881334 246.043475 
L 119.512764 236.886018 
L 121.144194 243.072469 
L 122.775624 252.295731 
L 124.407053 238.841618 
L 126.038483 245.06566 
L 127.669913 243.843435 
L 129.301343 241.869024 
L 130.932773 220.432714 
L 132.564203 245.723797 
L 134.195633 233.369705 
L 135.827063 214.819785 
L 137.458492 219.821602 
L 139.089922 215.449708 
L 140.721352 213.071034 
L 142.352782 208.088027 
L 143.984212 210.316281 
L 145.615642 205.540124 
L 147.247072 195.677535 
L 148.878502 187.187648 
L 150.509931 192.104821 
L 152.141361 190.807357 
L 153.772791 195.113446 
L 155.404221 189.575727 
L 157.035651 186.614126 
L 158.667081 193.881788 
L 160.298511 172.313867 
L 161.929941 184.085004 
L 163.56137 169.314647 
L 165.1928 175.416483 
L 166.82423 168.712939 
L 168.45566 166.221436 
L 170.08709 178.500289 
L 171.71852 157.609287 
L 173.34995 166.202626 
L 174.98138 164.923972 
L 178.244239 161.304234 
L 179.875669 164.406879 
L 181.507099 163.128196 
L 184.769959 153.246826 
L 186.401389 144.042374 
L 188.032819 161.905971 
L 189.664249 147.201419 
L 191.295678 147.831341 
L 192.927108 147.1638 
L 194.558538 158.822136 
L 196.189968 154.6195 
L 197.821398 154.5631 
L 199.452828 142.256003 
L 201.084258 137.235406 
L 202.715688 136.708908 
L 204.347117 142.876549 
L 205.978547 137.301211 
L 207.609977 153.904963 
L 209.241407 153.387841 
L 210.872837 136.097767 
L 212.504267 148.433049 
L 214.135697 137.254216 
L 215.767127 128.660876 
L 217.398556 142.256003 
L 219.029986 131.791707 
L 220.661416 140.300431 
L 222.292846 121.289791 
L 223.924276 132.449843 
L 225.555706 131.763521 
L 227.187136 133.653288 
L 228.818566 129.300203 
L 230.449995 116.993135 
L 232.081425 123.762513 
L 233.712855 125.031762 
L 235.344285 129.337823 
L 236.975715 119.437643 
L 238.607145 115.131554 
L 240.238575 126.197587 
L 241.870005 120.086375 
L 243.501434 129.90194 
L 245.132864 109.593864 
L 246.764294 117.698296 
L 248.395724 117.623058 
L 250.027154 115.723886 
L 251.658584 126.272797 
L 253.290014 113.288783 
L 254.921444 127.983959 
L 256.552873 115.770881 
L 258.184303 113.918734 
L 259.815733 123.743703 
L 261.447163 109.62205 
L 263.078593 108.954537 
L 264.710023 107.741688 
L 266.341453 112.066558 
L 267.972883 103.520242 
L 269.604312 99.750085 
L 271.235742 102.185159 
L 272.867172 105.278399 
L 274.498602 109.62205 
L 276.130032 100.962934 
L 277.761462 105.927131 
L 279.392892 96.656845 
L 281.024322 104.037335 
L 282.655751 94.851693 
L 284.287181 111.44604 
L 285.918611 107.751093 
L 287.550041 101.630447 
L 289.181471 104.04674 
L 290.812901 96.092728 
L 292.444331 92.36019 
L 294.075761 85.017319 
L 295.70719 98.490212 
L 297.33862 100.389412 
L 298.97005 98.584231 
L 300.60148 92.331975 
L 302.23291 94.851693 
L 303.86434 92.378999 
L 307.1272 86.201953 
L 308.75863 93.573039 
L 310.390059 94.832883 
L 312.021489 76.386389 
L 313.652919 84.359182 
L 315.284349 82.516411 
L 316.915779 85.017319 
L 318.547209 81.895893 
L 320.178639 89.925115 
L 321.810069 82.488196 
L 323.441498 85.017319 
L 325.072928 81.895893 
L 326.704358 77.523999 
L 328.335788 82.544625 
L 329.967218 74.505998 
L 331.598648 80.673639 
L 333.230078 88.119935 
L 334.861508 88.082344 
L 336.492937 70.876884 
L 338.124367 68.366571 
L 339.755797 78.802682 
L 341.387227 78.877892 
L 343.018657 67.116132 
L 344.650087 69.043518 
L 346.281517 76.348769 
L 347.912947 75.145325 
L 349.544376 67.125536 
L 351.175806 67.134912 
L 352.807236 67.821264 
L 354.438666 76.969287 
L 356.070096 76.367579 
L 357.701526 81.914703 
L 359.332956 65.263955 
L 360.964386 60.976676 
L 362.595815 64.032297 
L 364.227245 67.746054 
L 365.858675 59.143309 
L 367.490105 64.690433 
L 369.121535 59.133905 
L 370.752965 61.004891 
L 372.384395 60.327944 
L 374.015825 58.541602 
L 375.647254 68.375976 
L 377.278684 65.903282 
L 378.910114 64.671624 
L 380.541544 60.346754 
L 382.172974 66.50499 
L 383.804404 57.930489 
L 385.435834 57.262948 
L 387.067264 66.533205 
L 388.698693 54.226137 
L 390.330123 57.262948 
L 391.961553 64.022892 
L 393.592983 53.568 
L 395.224413 59.735641 
L 396.855843 54.837249 
L 398.487273 56.661211 
L 398.487273 56.661211 
" clip-path="url(#p7f51c32abb)" style="fill: none; stroke: #008000; stroke-width: 1.5; stroke-linecap: square"/>
   </g>
   <g id="line2d_16">
    <path d="M 73.832727 259.668836 
L 75.464157 278.37656 
L 77.095587 278.37656 
L 78.727017 255.116086 
L 80.358447 275.930032 
L 81.989877 276.049583 
L 83.621307 273.82381 
L 85.252736 250.195394 
L 86.884166 278.37656 
L 88.515596 281.12661 
L 90.147026 278.37656 
L 95.041316 278.37656 
L 96.672746 283.876659 
L 98.304175 278.37656 
L 101.567035 278.37656 
L 103.198465 276.224352 
L 104.829895 257.636179 
L 106.461325 278.37656 
L 109.724185 278.37656 
L 111.355614 242.487926 
L 112.987044 278.37656 
L 114.618474 281.12661 
L 116.249904 278.312168 
L 119.512764 278.37656 
L 124.407053 278.37656 
L 126.038483 278.496125 
L 127.669913 258.997428 
L 129.301343 278.37656 
L 130.932773 237.199349 
L 132.564203 278.37656 
L 134.195633 280.703536 
L 135.827063 275.74609 
L 137.458492 278.88243 
L 139.089922 281.12661 
L 140.721352 234.486082 
L 142.352782 222.087851 
L 143.984212 273.115591 
L 145.615642 270.365541 
L 147.247072 203.619286 
L 148.878502 267.192389 
L 150.509931 212.780003 
L 152.141361 181.407308 
L 153.772791 261.93142 
L 155.404221 161.862611 
L 157.035651 257.111931 
L 158.667081 272.996011 
L 160.298511 177.443197 
L 161.929941 245.909384 
L 163.56137 171.759155 
L 165.1928 148.112362 
L 166.82423 213.405425 
L 168.45566 169.312628 
L 170.08709 166.985651 
L 171.71852 204.888536 
L 173.34995 141.922449 
L 174.98138 185.877318 
L 176.61281 172.366171 
L 178.244239 199.388436 
L 179.875669 169.312628 
L 181.507099 166.562549 
L 183.138529 121.366039 
L 184.769959 145.334732 
L 186.401389 137.268496 
L 188.032819 150.476121 
L 189.664249 120.639443 
L 191.295678 161.605103 
L 192.927108 219.153858 
L 194.558538 121.062517 
L 196.189968 132.090325 
L 197.821398 137.857135 
L 199.452828 169.735672 
L 201.084258 120.179558 
L 202.715688 120.942966 
L 204.347117 106.4017 
L 205.978547 161.605103 
L 207.609977 131.704005 
L 209.241407 115.865939 
L 210.872837 107.551399 
L 212.504267 123.269942 
L 214.135697 145.822197 
L 215.767127 123.269942 
L 217.398556 115.865939 
L 219.029986 126.81095 
L 220.661416 110.181868 
L 222.292846 172.246591 
L 223.924276 126.323485 
L 225.555706 116.013099 
L 227.187136 120.639443 
L 228.818566 111.359147 
L 230.449995 104.258695 
L 232.081425 124.419611 
L 233.712855 126.627008 
L 235.344285 114.532299 
L 236.975715 115.442866 
L 238.607145 109.878375 
L 240.238575 118.615989 
L 241.870005 112.324902 
L 243.501434 111.717857 
L 245.132864 104.313884 
L 246.764294 123.150362 
L 248.395724 120.519863 
L 250.027154 109.27133 
L 251.658584 129.257478 
L 253.290014 104.497826 
L 254.921444 150.899223 
L 256.552873 125.716469 
L 258.184303 126.019963 
L 259.815733 131.400511 
L 261.447163 118.128524 
L 263.078593 106.705223 
L 264.710023 167.528305 
L 266.341453 112.205351 
L 267.972883 115.562417 
L 269.604312 128.227388 
L 271.235742 111.717857 
L 272.867172 131.096989 
L 274.498602 116.914464 
L 276.130032 112.205351 
L 277.761462 106.944354 
L 279.392892 111.9018 
L 281.024322 112.205351 
L 282.655751 109.335721 
L 284.287181 106.824803 
L 285.918611 105.914235 
L 287.550041 118.192887 
L 289.181471 111.782249 
L 290.812901 163.904499 
L 292.444331 114.228776 
L 294.075761 105.914235 
L 295.70719 114.348356 
L 297.33862 101.747777 
L 298.97005 107.128296 
L 300.60148 104.497826 
L 302.23291 107.008745 
L 303.86434 107.67095 
L 305.49577 117.22716 
L 307.1272 109.574852 
L 308.75863 104.920929 
L 310.390059 104.497826 
L 312.021489 101.867356 
L 313.652919 96.128097 
L 315.284349 112.508845 
L 316.915779 113.051498 
L 318.547209 106.944354 
L 320.178639 101.986908 
L 321.810069 107.79053 
L 323.441498 104.074724 
L 325.072928 108.425154 
L 326.704358 122.718057 
L 328.335788 101.747777 
L 329.967218 104.985291 
L 331.598648 105.527974 
L 333.230078 101.260312 
L 334.861508 98.813784 
L 336.492937 101.747777 
L 338.124367 96.183285 
L 339.755797 102.235241 
L 341.387227 116.10507 
L 343.018657 97.213404 
L 344.650087 104.617406 
L 346.281517 183.853864 
L 347.912947 96.974273 
L 349.544376 129.275883 
L 351.175806 112.02138 
L 352.807236 107.854921 
L 354.438666 102.29043 
L 356.070096 107.247905 
L 357.701526 94.159832 
L 359.332956 96.909881 
L 360.964386 118.312467 
L 362.595815 105.104871 
L 364.227245 108.094052 
L 365.858675 109.813983 
L 367.490105 113.051498 
L 369.121535 129.698986 
L 370.752965 115.865939 
L 372.384395 109.390881 
L 374.015825 110.181868 
L 375.647254 114.467936 
L 377.278684 105.224422 
L 378.910114 109.997926 
L 380.541544 105.408365 
L 382.172974 114.77143 
L 383.804404 125.679658 
L 385.435834 113.621731 
L 387.067264 104.194304 
L 388.698693 110.117506 
L 390.330123 102.474372 
L 393.592983 107.247905 
L 395.224413 102.474372 
L 396.855843 96.790301 
L 398.487273 111.175204 
L 398.487273 111.175204 
" clip-path="url(#p7f51c32abb)" style="fill: none; stroke: #ff0000; stroke-width: 1.5; stroke-linecap: square"/>
   </g>
   <g id="patch_3">
    <path d="M 57.6 307.584 
L 57.6 41.472 
" style="fill: none; stroke: #000000; stroke-width: 0.8; stroke-linejoin: miter; stroke-linecap: square"/>
   </g>
   <g id="patch_4">
    <path d="M 414.72 307.584 
L 414.72 41.472 
" style="fill: none; stroke: #000000; stroke-width: 0.8; stroke-linejoin: miter; stroke-linecap: square"/>
   </g>
   <g id="patch_5">
    <path d="M 57.6 307.584 
L 414.72 307.584 
" style="fill: none; stroke: #000000; stroke-width: 0.8; stroke-linejoin: miter; stroke-linecap: square"/>
   </g>
   <g id="patch_6">
    <path d="M 57.6 41.472 
L 414.72 41.472 
" style="fill: none; stroke: #000000; stroke-width: 0.8; stroke-linejoin: miter; stroke-linecap: square"/>
   </g>
   <g id="text_17">
    <!-- Balanced Accuracy per epoch, 2 class -->
    <g transform="translate(122.6325 35.472) scale(0.12 -0.12)">
     <defs>
      <path id="DejaVuSans-2c" d="M 750 794 
L 1409 794 
L 1409 256 
L 897 -744 
L 494 -744 
L 750 256 
L 750 794 
z
" transform="scale(0.015625)"/>
      <path id="DejaVuSans-73" d="M 2834 3397 
L 2834 2853 
Q 2591 2978 2328 3040 
Q 2066 3103 1784 3103 
Q 1356 3103 1142 2972 
Q 928 2841 928 2578 
Q 928 2378 1081 2264 
Q 1234 2150 1697 2047 
L 1894 2003 
Q 2506 1872 2764 1633 
Q 3022 1394 3022 966 
Q 3022 478 2636 193 
Q 2250 -91 1575 -91 
Q 1294 -91 989 -36 
Q 684 19 347 128 
L 347 722 
Q 666 556 975 473 
Q 1284 391 1588 391 
Q 1994 391 2212 530 
Q 2431 669 2431 922 
Q 2431 1156 2273 1281 
Q 2116 1406 1581 1522 
L 1381 1569 
Q 847 1681 609 1914 
Q 372 2147 372 2553 
Q 372 3047 722 3315 
Q 1072 3584 1716 3584 
Q 2034 3584 2315 3537 
Q 2597 3491 2834 3397 
z
" transform="scale(0.015625)"/>
     </defs>
     <use xlink:href="#DejaVuSans-42"/>
     <use xlink:href="#DejaVuSans-61" x="68.603516"/>
     <use xlink:href="#DejaVuSans-6c" x="129.882812"/>
     <use xlink:href="#DejaVuSans-61" x="157.666016"/>
     <use xlink:href="#DejaVuSans-6e" x="218.945312"/>
     <use xlink:href="#DejaVuSans-63" x="282.324219"/>
     <use xlink:href="#DejaVuSans-65" x="337.304688"/>
     <use xlink:href="#DejaVuSans-64" x="398.828125"/>
     <use xlink:href="#DejaVuSans-20" x="462.304688"/>
     <use xlink:href="#DejaVuSans-41" x="494.091797"/>
     <use xlink:href="#DejaVuSans-63" x="560.75"/>
     <use xlink:href="#DejaVuSans-63" x="615.730469"/>
     <use xlink:href="#DejaVuSans-75" x="670.710938"/>
     <use xlink:href="#DejaVuSans-72" x="734.089844"/>
     <use xlink:href="#DejaVuSans-61" x="775.203125"/>
     <use xlink:href="#DejaVuSans-63" x="836.482422"/>
     <use xlink:href="#DejaVuSans-79" x="891.462891"/>
     <use xlink:href="#DejaVuSans-20" x="950.642578"/>
     <use xlink:href="#DejaVuSans-70" x="982.429688"/>
     <use xlink:href="#DejaVuSans-65" x="1045.90625"/>
     <use xlink:href="#DejaVuSans-72" x="1107.429688"/>
     <use xlink:href="#DejaVuSans-20" x="1148.542969"/>
     <use xlink:href="#DejaVuSans-65" x="1180.330078"/>
     <use xlink:href="#DejaVuSans-70" x="1241.853516"/>
     <use xlink:href="#DejaVuSans-6f" x="1305.330078"/>
     <use xlink:href="#DejaVuSans-63" x="1366.511719"/>
     <use xlink:href="#DejaVuSans-68" x="1421.492188"/>
     <use xlink:href="#DejaVuSans-2c" x="1484.871094"/>
     <use xlink:href="#DejaVuSans-20" x="1516.658203"/>
     <use xlink:href="#DejaVuSans-32" x="1548.445312"/>
     <use xlink:href="#DejaVuSans-20" x="1612.068359"/>
     <use xlink:href="#DejaVuSans-63" x="1643.855469"/>
     <use xlink:href="#DejaVuSans-6c" x="1698.835938"/>
     <use xlink:href="#DejaVuSans-61" x="1726.619141"/>
     <use xlink:href="#DejaVuSans-73" x="1787.898438"/>
     <use xlink:href="#DejaVuSans-73" x="1839.998047"/>
    </g>
   </g>
   <g id="legend_1">
    <g id="patch_7">
     <path d="M 64.6 78.82825 
L 119.875 78.82825 
Q 121.875 78.82825 121.875 76.82825 
L 121.875 48.472 
Q 121.875 46.472 119.875 46.472 
L 64.6 46.472 
Q 62.6 46.472 62.6 48.472 
L 62.6 76.82825 
Q 62.6 78.82825 64.6 78.82825 
z
" style="fill: #ffffff; opacity: 0.8; stroke: #cccccc; stroke-linejoin: miter"/>
    </g>
    <g id="line2d_17">
     <path d="M 66.6 54.570437 
L 76.6 54.570437 
L 86.6 54.570437 
" style="fill: none; stroke: #008000; stroke-width: 1.5; stroke-linecap: square"/>
    </g>
    <g id="text_18">
     <!-- train -->
     <g transform="translate(94.6 58.070437) scale(0.1 -0.1)">
      <defs>
       <path id="DejaVuSans-74" d="M 1172 4494 
L 1172 3500 
L 2356 3500 
L 2356 3053 
L 1172 3053 
L 1172 1153 
Q 1172 725 1289 603 
Q 1406 481 1766 481 
L 2356 481 
L 2356 0 
L 1766 0 
Q 1100 0 847 248 
Q 594 497 594 1153 
L 594 3053 
L 172 3053 
L 172 3500 
L 594 3500 
L 594 4494 
L 1172 4494 
z
" transform="scale(0.015625)"/>
       <path id="DejaVuSans-69" d="M 603 3500 
L 1178 3500 
L 1178 0 
L 603 0 
L 603 3500 
z
M 603 4863 
L 1178 4863 
L 1178 4134 
L 603 4134 
L 603 4863 
z
" transform="scale(0.015625)"/>
      </defs>
      <use xlink:href="#DejaVuSans-74"/>
      <use xlink:href="#DejaVuSans-72" x="39.208984"/>
      <use xlink:href="#DejaVuSans-61" x="80.322266"/>
      <use xlink:href="#DejaVuSans-69" x="141.601562"/>
      <use xlink:href="#DejaVuSans-6e" x="169.384766"/>
     </g>
    </g>
    <g id="line2d_18">
     <path d="M 66.6 69.248562 
L 76.6 69.248562 
L 86.6 69.248562 
" style="fill: none; stroke: #ff0000; stroke-width: 1.5; stroke-linecap: square"/>
    </g>
    <g id="text_19">
     <!-- test -->
     <g transform="translate(94.6 72.748562) scale(0.1 -0.1)">
      <use xlink:href="#DejaVuSans-74"/>
      <use xlink:href="#DejaVuSans-65" x="39.208984"/>
      <use xlink:href="#DejaVuSans-73" x="100.732422"/>
      <use xlink:href="#DejaVuSans-74" x="152.832031"/>
     </g>
    </g>
   </g>
  </g>
 </g>
 <defs>
  <clipPath id="p7f51c32abb">
   <rect x="57.6" y="41.472" width="357.12" height="266.112"/>
  </clipPath>
 </defs>
</svg>
